<mxfile host="app.diagrams.net" modified="2024-05-19T09:29:44.063Z" agent="Mozilla/5.0 (Windows NT 10.0; Win64; x64) AppleWebKit/537.36 (KHTML, like Gecko) Chrome/124.0.0.0 Safari/537.36" version="24.4.4" etag="BqilJYyMuVM9SVzJbNYf" type="github">
  <diagram name="第 1 页" id="-WIzkyHGkCralGrp-vN6">
    <mxGraphModel>
      <root>
        <mxCell id="0" />
        <mxCell id="1" parent="0" />
      </root>
    </mxGraphModel>
  </diagram>
</mxfile>
